# Blender v2.79 (sub 0) OBJ File: 'banco_2.blend'
# www.blender.org
mtllib banco_2.mtl
o Cube
v -0.150704 -1.000000 -0.930604
v -0.150704 -1.000000 0.930604
v -3.177749 -1.000000 0.930604
v -3.177749 -1.000000 -0.930605
v -0.005084 -1.123464 -0.996476
v -0.005084 -1.123464 0.996476
v -3.323370 -1.123464 0.996476
v -3.323369 -1.123464 -0.996477
v -0.049122 0.943917 -0.999999
v -0.049122 1.000000 -0.943916
v 0.006961 0.943917 -0.943916
v -0.049124 0.943917 1.000001
v 0.006960 0.943917 0.943917
v -0.049124 1.000000 0.943917
v -3.335414 0.943917 0.943916
v -3.279330 0.943917 1.000000
v -3.279330 1.000000 0.943916
v -3.335414 0.943917 -0.943917
v -3.279330 1.000000 -0.943917
v -3.279330 0.943917 -1.000000
v 0.006960 -0.855049 -0.943917
v -0.050163 -0.943330 -0.974857
v -0.049123 -0.855049 -1.000000
v 0.006960 -0.855049 0.943917
v -0.049123 -0.855049 1.000000
v -0.050163 -0.943330 0.974857
v -3.279330 -0.855049 1.000000
v -3.335414 -0.855049 0.943916
v -3.278291 -0.943330 0.974857
v -3.335413 -0.855049 -0.943917
v -3.279330 -0.855049 -1.000000
v -3.278290 -0.943330 -0.974858
v 0.150704 -1.000000 -0.930604
v 0.150704 -1.000000 0.930604
v 3.177749 -1.000000 0.930604
v 3.177749 -1.000000 -0.930605
v 0.005084 -1.123464 -0.996476
v 0.005084 -1.123464 0.996476
v 3.323370 -1.123464 0.996476
v 3.323369 -1.123464 -0.996477
v 0.049122 0.943917 -0.999999
v 0.049122 1.000000 -0.943916
v -0.006961 0.943917 -0.943916
v 0.049124 0.943917 1.000001
v -0.006960 0.943917 0.943917
v 0.049124 1.000000 0.943917
v 3.335414 0.943917 0.943916
v 3.279330 0.943917 1.000000
v 3.279330 1.000000 0.943916
v 3.335414 0.943917 -0.943917
v 3.279330 1.000000 -0.943917
v 3.279330 0.943917 -1.000000
v -0.006960 -0.855049 -0.943917
v 0.050163 -0.943330 -0.974857
v 0.049123 -0.855049 -1.000000
v -0.006960 -0.855049 0.943917
v 0.049123 -0.855049 1.000000
v 0.050163 -0.943330 0.974857
v 3.279330 -0.855049 1.000000
v 3.335414 -0.855049 0.943916
v 3.278291 -0.943330 0.974857
v 3.335413 -0.855049 -0.943917
v 3.279330 -0.855049 -1.000000
v 3.278290 -0.943330 -0.974858
vn 0.6467 0.7627 0.0000
vn 0.0000 1.0000 0.0000
vn 0.4910 -0.8711 0.0000
vn -0.0000 -0.6155 0.7882
vn 1.0000 0.0000 0.0000
vn -0.4910 -0.8711 -0.0000
vn 0.0000 -0.6155 -0.7882
vn 0.0000 -1.0000 0.0000
vn 0.6921 -0.2053 -0.6921
vn 0.6921 -0.2053 0.6921
vn 0.7071 -0.0000 0.7071
vn 0.7071 0.7071 0.0000
vn -0.0000 0.7071 0.7071
vn -0.7071 0.7071 0.0000
vn 0.0000 -0.2739 -0.9618
vn 0.8396 -0.5433 0.0000
vn -0.6467 0.7627 0.0000
vn -1.0000 0.0000 0.0000
vn -0.6921 -0.2053 -0.6921
vn -0.6921 -0.2053 0.6921
vn -0.7071 -0.0000 0.7071
vn -0.8396 -0.5433 0.0000
vn -0.0000 -0.0000 1.0000
vn 0.5774 0.5774 -0.5773
vn 0.5774 0.5774 0.5773
vn -0.5773 0.5773 0.5774
vn -0.5773 0.5773 -0.5774
vn -0.6921 -0.2052 0.6921
vn -0.6921 -0.2052 -0.6921
vn 0.7071 0.0000 -0.7071
vn -0.7071 -0.0000 -0.7071
vn 0.0000 0.7071 -0.7071
vn -0.0000 -0.2739 0.9618
vn 0.0000 0.0000 -1.0000
vn -0.5774 0.5774 -0.5773
vn -0.5774 0.5774 0.5773
vn 0.5773 0.5773 0.5774
vn 0.5773 0.5773 -0.5774
vn 0.6921 -0.2052 0.6921
vn 0.6921 -0.2052 -0.6921
vn -0.0000 0.4707 0.8823
vn 0.0000 0.4707 -0.8823
usemtl Material
s off
f 1//1 2//1 6//1 5//1
f 10//2 19//2 17//2 14//2
f 1//3 22//3 26//3 2//3
f 2//4 26//4 29//4 3//4
f 21//5 11//5 13//5 24//5
f 3//6 29//6 32//6 4//6
f 22//7 1//7 4//7 32//7
f 5//8 6//8 7//8 8//8
f 21//9 22//9 23//9
f 24//10 25//10 26//10
f 24//11 13//11 12//11 25//11
f 10//12 14//12 13//12 11//12
f 14//13 17//13 16//13 12//13
f 17//14 19//14 18//14 15//14
f 22//15 32//15 31//15 23//15
f 21//16 24//16 26//16 22//16
f 33//17 37//17 38//17 34//17
f 42//2 46//2 49//2 51//2
f 33//6 34//6 58//6 54//6
f 34//4 35//4 61//4 58//4
f 53//18 56//18 45//18 43//18
f 35//3 36//3 64//3 61//3
f 54//7 64//7 36//7 33//7
f 37//8 40//8 39//8 38//8
f 53//19 55//19 54//19
f 56//20 58//20 57//20
f 56//21 57//21 44//21 45//21
f 42//14 43//14 45//14 46//14
f 46//13 44//13 48//13 49//13
f 49//12 47//12 50//12 51//12
f 54//15 55//15 63//15 64//15
f 53//22 54//22 58//22 56//22
usemtl Material.001
f 25//23 12//23 16//23 27//23
f 28//18 15//18 18//18 30//18
f 9//24 10//24 11//24
f 12//25 13//25 14//25
f 15//26 16//26 17//26
f 18//27 19//27 20//27
f 27//28 28//28 29//28
f 30//29 31//29 32//29
f 23//30 9//30 11//30 21//30
f 27//21 16//21 15//21 28//21
f 30//31 18//31 20//31 31//31
f 9//32 20//32 19//32 10//32
f 28//22 30//22 32//22 29//22
f 25//33 27//33 29//33 26//33
f 9//34 23//34 31//34 20//34
f 57//23 59//23 48//23 44//23
f 60//5 62//5 50//5 47//5
f 41//35 43//35 42//35
f 44//36 46//36 45//36
f 47//37 49//37 48//37
f 50//38 52//38 51//38
f 59//39 61//39 60//39
f 62//40 64//40 63//40
f 55//31 53//31 43//31 41//31
f 59//11 60//11 47//11 48//11
f 62//30 63//30 52//30 50//30
f 41//32 42//32 51//32 52//32
f 60//16 61//16 64//16 62//16
f 57//33 58//33 61//33 59//33
f 41//34 52//34 63//34 55//34
usemtl Madeira
f 3//17 4//17 8//17 7//17
f 2//41 3//41 7//41 6//41
f 4//42 1//42 5//42 8//42
f 35//1 39//1 40//1 36//1
f 34//41 38//41 39//41 35//41
f 36//42 40//42 37//42 33//42
