# Blender v2.79 (sub 0) OBJ File: 'Muro.blend'
# www.blender.org
mtllib Muro.mtl
o Cilindro
v 10.834585 -2.174418 -0.148171
v 10.834585 2.242203 -0.148171
v 10.935937 -2.174418 -0.106189
v 10.935937 2.242203 -0.106189
v 10.977919 -2.174418 -0.004837
v 10.977919 2.242203 -0.004837
v 10.935937 -2.174418 0.096515
v 10.935937 2.242203 0.096515
v 10.834585 -2.174418 0.138496
v 10.834585 2.242203 0.138496
v 10.733233 -2.174418 0.096515
v 10.733233 2.242203 0.096515
v 10.691252 -2.174418 -0.004837
v 10.691252 2.242203 -0.004837
v 10.733233 -2.174418 -0.106189
v 10.733233 2.242203 -0.106189
v 12.245712 -2.174418 -0.148171
v 12.245712 2.242203 -0.148171
v 12.347064 -2.174418 -0.106189
v 12.347064 2.242203 -0.106189
v 12.389046 -2.174418 -0.004837
v 12.389046 2.242203 -0.004837
v 12.347064 -2.174418 0.096515
v 12.347064 2.242203 0.096515
v 12.245712 -2.174418 0.138496
v 12.245712 2.242203 0.138496
v 12.144360 -2.174418 0.096515
v 12.144360 2.242203 0.096515
v 12.102379 -2.174418 -0.004837
v 12.102379 2.242203 -0.004837
v 12.144360 -2.174418 -0.106189
v 12.144360 2.242203 -0.106189
v 9.344330 -2.174418 -0.148171
v 9.344330 2.242203 -0.148171
v 9.445683 -2.174418 -0.106189
v 9.445683 2.242203 -0.106189
v 9.487663 -2.174418 -0.004837
v 9.487663 2.242203 -0.004837
v 9.445683 -2.174418 0.096515
v 9.445683 2.242203 0.096515
v 9.344330 -2.174418 0.138496
v 9.344330 2.242203 0.138496
v 9.242978 -2.174418 0.096515
v 9.242978 2.242203 0.096515
v 9.200996 -2.174418 -0.004837
v 9.200996 2.242203 -0.004837
v 9.242978 -2.174418 -0.106189
v 9.242978 2.242203 -0.106189
v 18.058712 -2.174418 -0.148171
v 18.058712 2.242203 -0.148171
v 18.160065 -2.174418 -0.106189
v 18.160065 2.242203 -0.106189
v 18.202045 -2.174418 -0.004837
v 18.202045 2.242203 -0.004837
v 18.160065 -2.174418 0.096515
v 18.160065 2.242203 0.096515
v 18.058712 -2.174418 0.138496
v 18.058712 2.242203 0.138496
v 17.957359 -2.174418 0.096515
v 17.957359 2.242203 0.096515
v 17.915379 -2.174418 -0.004837
v 17.915379 2.242203 -0.004837
v 17.957359 -2.174418 -0.106189
v 17.957359 2.242203 -0.106189
v 19.469839 -2.174418 -0.148171
v 19.469839 2.242203 -0.148171
v 19.571190 -2.174418 -0.106189
v 19.571190 2.242203 -0.106189
v 19.613173 -2.174418 -0.004837
v 19.613173 2.242203 -0.004837
v 19.571190 -2.174418 0.096515
v 19.571190 2.242203 0.096515
v 19.469839 -2.174418 0.138496
v 19.469839 2.242203 0.138496
v 19.368486 -2.174418 0.096515
v 19.368486 2.242203 0.096515
v 19.326506 -2.174418 -0.004837
v 19.326506 2.242203 -0.004837
v 19.368486 -2.174418 -0.106189
v 19.368486 2.242203 -0.106189
v 16.568457 -2.174418 -0.148171
v 16.568457 2.242203 -0.148171
v 16.669809 -2.174418 -0.106189
v 16.669809 2.242203 -0.106189
v 16.711790 -2.174418 -0.004837
v 16.711790 2.242203 -0.004837
v 16.669809 -2.174418 0.096515
v 16.669809 2.242203 0.096515
v 16.568457 -2.174418 0.138496
v 16.568457 2.242203 0.138496
v 16.467104 -2.174418 0.096515
v 16.467104 2.242203 0.096515
v 16.425123 -2.174418 -0.004837
v 16.425123 2.242203 -0.004837
v 16.467104 -2.174418 -0.106189
v 16.467104 2.242203 -0.106189
v 25.351204 -2.174418 -0.148171
v 25.351204 2.242203 -0.148171
v 25.452557 -2.174418 -0.106189
v 25.452557 2.242203 -0.106189
v 25.494537 -2.174418 -0.004837
v 25.494537 2.242203 -0.004837
v 25.452557 -2.174418 0.096515
v 25.452557 2.242203 0.096515
v 25.351204 -2.174418 0.138496
v 25.351204 2.242203 0.138496
v 25.249853 -2.174418 0.096515
v 25.249853 2.242203 0.096515
v 25.207870 -2.174418 -0.004837
v 25.207870 2.242203 -0.004837
v 25.249853 -2.174418 -0.106189
v 25.249853 2.242203 -0.106189
v 26.762333 -2.174418 -0.148171
v 26.762333 2.242203 -0.148171
v 26.863686 -2.174418 -0.106189
v 26.863686 2.242203 -0.106189
v 26.905666 -2.174418 -0.004837
v 26.905666 2.242203 -0.004837
v 26.863686 -2.174418 0.096515
v 26.863686 2.242203 0.096515
v 26.762333 -2.174418 0.138496
v 26.762333 2.242203 0.138496
v 26.660980 -2.174418 0.096515
v 26.660980 2.242203 0.096515
v 26.618999 -2.174418 -0.004837
v 26.618999 2.242203 -0.004837
v 26.660980 -2.174418 -0.106189
v 26.660980 2.242203 -0.106189
v 23.860950 -2.174418 -0.148171
v 23.860950 2.242203 -0.148171
v 23.962303 -2.174418 -0.106189
v 23.962303 2.242203 -0.106189
v 24.004284 -2.174418 -0.004837
v 24.004284 2.242203 -0.004837
v 23.962303 -2.174418 0.096515
v 23.962303 2.242203 0.096515
v 23.860950 -2.174418 0.138496
v 23.860950 2.242203 0.138496
v 23.759598 -2.174418 0.096515
v 23.759598 2.242203 0.096515
v 23.717617 -2.174418 -0.004837
v 23.717617 2.242203 -0.004837
v 23.759598 -2.174418 -0.106189
v 23.759598 2.242203 -0.106189
vn 0.3827 0.0000 -0.9239
vn 0.9239 0.0000 -0.3827
vn 0.9239 0.0000 0.3827
vn 0.3827 0.0000 0.9239
vn -0.3827 0.0000 0.9239
vn -0.9239 0.0000 0.3827
vn -0.9239 0.0000 -0.3827
vn -0.3827 0.0000 -0.9239
usemtl Materiais
s off
f 1//1 2//1 4//1 3//1
f 3//2 4//2 6//2 5//2
f 5//3 6//3 8//3 7//3
f 7//4 8//4 10//4 9//4
f 9//5 10//5 12//5 11//5
f 11//6 12//6 14//6 13//6
f 53//3 54//3 56//3 55//3
f 13//7 14//7 16//7 15//7
f 15//8 16//8 2//8 1//8
f 17//1 18//1 20//1 19//1
f 19//2 20//2 22//2 21//2
f 21//3 22//3 24//3 23//3
f 23//4 24//4 26//4 25//4
f 25//5 26//5 28//5 27//5
f 27//6 28//6 30//6 29//6
f 51//2 52//2 54//2 53//2
f 29//7 30//7 32//7 31//7
f 31//8 32//8 18//8 17//8
f 33//1 34//1 36//1 35//1
f 35//2 36//2 38//2 37//2
f 37//3 38//3 40//3 39//3
f 39//4 40//4 42//4 41//4
f 41//5 42//5 44//5 43//5
f 43//6 44//6 46//6 45//6
f 49//1 50//1 52//1 51//1
f 45//7 46//7 48//7 47//7
f 47//8 48//8 34//8 33//8
f 55//4 56//4 58//4 57//4
f 57//5 58//5 60//5 59//5
f 59//6 60//6 62//6 61//6
f 61//7 62//7 64//7 63//7
f 63//8 64//8 50//8 49//8
f 65//1 66//1 68//1 67//1
f 67//2 68//2 70//2 69//2
f 69//3 70//3 72//3 71//3
f 71//4 72//4 74//4 73//4
f 73//5 74//5 76//5 75//5
f 75//6 76//6 78//6 77//6
f 77//7 78//7 80//7 79//7
f 79//8 80//8 66//8 65//8
f 81//1 82//1 84//1 83//1
f 83//2 84//2 86//2 85//2
f 85//3 86//3 88//3 87//3
f 87//4 88//4 90//4 89//4
f 89//5 90//5 92//5 91//5
f 91//6 92//6 94//6 93//6
f 93//7 94//7 96//7 95//7
f 95//8 96//8 82//8 81//8
f 101//3 102//3 104//3 103//3
f 99//2 100//2 102//2 101//2
f 97//1 98//1 100//1 99//1
f 103//4 104//4 106//4 105//4
f 105//5 106//5 108//5 107//5
f 107//6 108//6 110//6 109//6
f 109//7 110//7 112//7 111//7
f 111//8 112//8 98//8 97//8
f 113//1 114//1 116//1 115//1
f 115//2 116//2 118//2 117//2
f 117//3 118//3 120//3 119//3
f 119//4 120//4 122//4 121//4
f 121//5 122//5 124//5 123//5
f 123//6 124//6 126//6 125//6
f 125//7 126//7 128//7 127//7
f 127//8 128//8 114//8 113//8
f 129//1 130//1 132//1 131//1
f 131//2 132//2 134//2 133//2
f 133//3 134//3 136//3 135//3
f 135//4 136//4 138//4 137//4
f 137//5 138//5 140//5 139//5
f 139//6 140//6 142//6 141//6
f 141//7 142//7 144//7 143//7
f 143//8 144//8 130//8 129//8
o Cube
v 1.000000 -2.163844 -1.000000
v 1.000000 -2.163844 1.000000
v -1.000000 -2.163844 1.000000
v -1.000000 -2.163844 -1.000000
v 1.000000 2.163844 -1.000000
v 0.999999 2.163844 1.000001
v -1.000000 2.163844 1.000000
v -1.000000 2.163844 -1.000000
v 1.206003 2.337499 -1.206001
v 1.206001 2.337499 1.206003
v -1.206002 2.337499 -1.206002
v -1.206002 2.337499 1.206002
v 1.206003 2.746829 -1.206001
v 1.206001 2.746829 1.206003
v -1.206002 2.746829 -1.206002
v -1.206002 2.746829 1.206002
v 1.000000 -2.163844 -0.210203
v 1.000000 -2.163844 0.210203
v -1.000000 -2.163844 0.210203
v -1.000000 -2.163844 -0.210203
v 1.000000 2.163844 -0.210203
v 1.000000 2.163844 0.210203
v -1.000000 2.163844 0.210203
v -1.000000 2.163844 -0.210203
v 1.206002 2.337499 -0.253505
v 1.206002 2.337499 0.253506
v -1.206002 2.337499 0.253505
v -1.206002 2.337499 -0.253505
v 1.206002 2.746829 -0.253505
v 1.206002 2.746829 0.253506
v -1.206002 2.746829 0.253505
v -1.206002 2.746829 -0.253505
v 8.236014 -2.163844 -1.000000
v 8.236014 -2.163844 1.000000
v 6.236015 -2.163844 1.000000
v 6.236015 -2.163844 -1.000000
v 8.236015 2.163844 -1.000000
v 8.236014 2.163844 1.000001
v 6.236014 2.163844 1.000000
v 6.236015 2.163844 -1.000000
v 8.442018 2.337499 -1.206001
v 8.442017 2.337499 1.206003
v 6.030013 2.337499 -1.206002
v 6.030013 2.337499 1.206002
v 8.442018 2.746829 -1.206001
v 8.442017 2.746829 1.206003
v 6.030013 2.746829 -1.206002
v 6.030013 2.746829 1.206002
v 8.236014 -2.163844 -0.210203
v 8.236014 -2.163844 0.210203
v 6.236015 -2.163844 0.210203
v 6.236015 -2.163844 -0.210203
v 8.236015 2.163844 -0.210203
v 8.236014 2.163844 0.210203
v 6.236014 2.163844 0.210203
v 6.236015 2.163844 -0.210203
v 8.442017 2.337499 -0.253505
v 8.442017 2.337499 0.253506
v 6.030013 2.337499 0.253505
v 6.030013 2.337499 -0.253505
v 8.442017 2.746829 -0.253505
v 8.442017 2.746829 0.253506
v 6.030013 2.746829 0.253505
v 6.030013 2.746829 -0.253505
v 15.472030 -2.163844 -1.000000
v 15.472030 -2.163844 1.000000
v 13.472030 -2.163844 1.000000
v 13.472030 -2.163844 -1.000000
v 15.472031 2.163844 -1.000000
v 15.472029 2.163844 1.000001
v 13.472030 2.163844 1.000000
v 13.472030 2.163844 -1.000000
v 15.678032 2.337499 -1.206001
v 15.678031 2.337499 1.206003
v 13.266027 2.337499 -1.206002
v 13.266027 2.337499 1.206002
v 15.678032 2.746829 -1.206001
v 15.678031 2.746829 1.206003
v 13.266027 2.746829 -1.206002
v 13.266027 2.746829 1.206002
v 15.472030 -2.163844 -0.210203
v 15.472030 -2.163844 0.210203
v 13.472030 -2.163844 0.210203
v 13.472030 -2.163844 -0.210203
v 15.472030 2.163844 -0.210203
v 15.472030 2.163844 0.210203
v 13.472030 2.163844 0.210203
v 13.472030 2.163844 -0.210203
v 15.678032 2.337499 -0.253505
v 15.678032 2.337499 0.253506
v 13.266027 2.337499 0.253505
v 13.266027 2.337499 -0.253505
v 15.678032 2.746829 -0.253505
v 15.678032 2.746829 0.253506
v 13.266027 2.746829 0.253505
v 13.266027 2.746829 -0.253505
v 22.708044 -2.163844 -1.000000
v 22.708044 -2.163844 1.000000
v 20.708044 -2.163844 1.000000
v 20.708044 -2.163844 -1.000000
v 22.708044 2.163844 -1.000000
v 22.708044 2.163844 1.000001
v 20.708044 2.163844 1.000000
v 20.708044 2.163844 -1.000000
v 22.914047 2.337499 -1.206001
v 22.914045 2.337499 1.206003
v 20.502043 2.337499 -1.206002
v 20.502041 2.337499 1.206002
v 22.914047 2.746829 -1.206001
v 22.914045 2.746829 1.206003
v 20.502043 2.746829 -1.206002
v 20.502041 2.746829 1.206002
v 22.708044 -2.163844 -0.210203
v 22.708044 -2.163844 0.210203
v 20.708044 -2.163844 0.210203
v 20.708044 -2.163844 -0.210203
v 22.708044 2.163844 -0.210203
v 22.708044 2.163844 0.210203
v 20.708044 2.163844 0.210203
v 20.708044 2.163844 -0.210203
v 22.914045 2.337499 -0.253505
v 22.914045 2.337499 0.253506
v 20.502041 2.337499 0.253505
v 20.502043 2.337499 -0.253505
v 22.914045 2.746829 -0.253505
v 22.914045 2.746829 0.253506
v 20.502041 2.746829 0.253505
v 20.502043 2.746829 -0.253505
v 29.944059 -2.163844 -1.000000
v 29.944059 -2.163844 1.000000
v 27.944059 -2.163844 1.000000
v 27.944059 -2.163844 -1.000000
v 29.944059 2.163844 -1.000000
v 29.944059 2.163844 1.000001
v 27.944059 2.163844 1.000000
v 27.944059 2.163844 -1.000000
v 30.150063 2.337499 -1.206001
v 30.150061 2.337499 1.206003
v 27.738058 2.337499 -1.206002
v 27.738056 2.337499 1.206002
v 30.150063 2.746829 -1.206001
v 30.150061 2.746829 1.206003
v 27.738058 2.746829 -1.206002
v 27.738056 2.746829 1.206002
v 29.944059 -2.163844 -0.210203
v 29.944059 -2.163844 0.210203
v 27.944059 -2.163844 0.210203
v 27.944059 -2.163844 -0.210203
v 29.944059 2.163844 -0.210203
v 29.944059 2.163844 0.210203
v 27.944059 2.163844 0.210203
v 27.944059 2.163844 -0.210203
v 30.150061 2.337499 -0.253505
v 30.150061 2.337499 0.253506
v 27.738056 2.337499 0.253505
v 27.738058 2.337499 -0.253505
v 30.150061 2.746829 -0.253505
v 30.150061 2.746829 0.253506
v 27.738056 2.746829 0.253505
v 27.738058 2.746829 -0.253505
vn 1.0000 0.0000 0.0000
vn -0.0000 -0.0000 1.0000
vn -1.0000 -0.0000 -0.0000
vn 0.0000 0.0000 -1.0000
vn -0.6445 -0.7646 -0.0000
vn 0.6445 -0.7646 0.0000
vn 0.0000 -0.7646 -0.6445
vn -0.0000 -0.7646 0.6445
vn 0.0000 1.0000 0.0000
vn 0.0000 -1.0000 0.0000
vn -0.0000 -0.2419 -0.9703
vn 0.0000 -0.2419 0.9703
usemtl Muro
s off
f 162//9 166//9 150//9 146//9
f 146//10 150//10 151//10 147//10
f 164//11 168//11 152//11 148//11
f 149//12 145//12 148//12 152//12
f 147//11 151//11 167//11 163//11
f 163//11 167//11 168//11 164//11
f 145//9 149//9 165//9 161//9
f 194//9 198//9 182//9 178//9
f 178//10 182//10 183//10 179//10
f 196//11 200//11 184//11 180//11
f 181//12 177//12 180//12 184//12
f 179//11 183//11 199//11 195//11
f 195//10 199//10 166//10 162//10
f 177//9 181//9 197//9 193//9
f 193//9 197//9 198//9 194//9
f 226//9 230//9 214//9 210//9
f 210//10 214//10 215//10 211//10
f 228//11 232//11 216//11 212//11
f 213//12 209//12 212//12 216//12
f 211//11 215//11 231//11 227//11
f 227//11 231//11 232//11 228//11
f 209//9 213//9 229//9 225//9
f 225//9 229//9 230//9 226//9
f 258//9 262//9 246//9 242//9
f 242//10 246//10 247//10 243//10
f 260//11 264//11 248//11 244//11
f 245//12 241//12 244//12 248//12
f 243//11 247//11 263//11 259//11
f 259//11 263//11 264//11 260//11
f 241//9 245//9 261//9 257//9
f 257//9 261//9 262//9 258//9
f 290//9 294//9 278//9 274//9
f 274//10 278//10 279//10 275//10
f 292//11 296//11 280//11 276//11
f 277//12 273//12 276//12 280//12
f 275//11 279//11 295//11 291//11
f 291//11 295//11 296//11 292//11
f 273//9 277//9 293//9 289//9
f 289//9 293//9 294//9 290//9
f 161//12 165//12 200//12 196//12
usemtl Gesso
f 167//13 151//13 156//13 171//13
f 153//12 155//12 159//12 157//12
f 165//14 149//14 153//14 169//14
f 149//15 152//15 155//15 153//15
f 151//16 150//16 154//16 156//16
f 174//17 175//17 160//17 158//17
f 156//10 154//10 158//10 160//10
f 171//11 156//11 160//11 175//11
f 169//9 153//9 157//9 173//9
f 154//9 170//9 174//9 158//9
f 170//9 169//9 173//9 174//9
f 155//11 172//11 176//11 159//11
f 172//11 171//11 175//11 176//11
f 157//17 159//17 176//17 173//17
f 173//17 176//17 175//17 174//17
f 150//14 166//14 170//14 154//14
f 166//14 165//14 169//14 170//14
f 165//17 166//17 199//17 200//17
f 152//13 168//13 172//13 155//13
f 168//13 167//13 171//13 172//13
f 199//13 183//13 188//13 203//13
f 185//12 187//12 191//12 189//12
f 197//14 181//14 185//14 201//14
f 181//15 184//15 187//15 185//15
f 183//16 182//16 186//16 188//16
f 206//17 207//17 192//17 190//17
f 188//10 186//10 190//10 192//10
f 203//11 188//11 192//11 207//11
f 201//9 185//9 189//9 205//9
f 186//9 202//9 206//9 190//9
f 202//9 201//9 205//9 206//9
f 187//11 204//11 208//11 191//11
f 204//11 203//11 207//11 208//11
f 189//17 191//17 208//17 205//17
f 205//17 208//17 207//17 206//17
f 182//14 198//14 202//14 186//14
f 229//18 264//18 263//18 230//18
f 184//13 200//13 204//13 187//13
f 200//13 199//13 203//13 204//13
f 231//13 215//13 220//13 235//13
f 217//12 219//12 223//12 221//12
f 229//14 213//14 217//14 233//14
f 213//15 216//15 219//15 217//15
f 215//16 214//16 218//16 220//16
f 238//17 239//17 224//17 222//17
f 220//10 218//10 222//10 224//10
f 235//11 220//11 224//11 239//11
f 233//9 217//9 221//9 237//9
f 218//9 234//9 238//9 222//9
f 234//9 233//9 237//9 238//9
f 219//11 236//11 240//11 223//11
f 236//11 235//11 239//11 240//11
f 221//17 223//17 240//17 237//17
f 237//17 240//17 239//17 238//17
f 214//14 230//14 234//14 218//14
f 201//19 236//19 232//19 197//19
f 216//13 232//13 236//13 219//13
f 234//20 230//20 263//20 267//20
f 263//13 247//13 252//13 267//13
f 249//12 251//12 255//12 253//12
f 261//14 245//14 249//14 265//14
f 245//15 248//15 251//15 249//15
f 247//16 246//16 250//16 252//16
f 270//17 271//17 256//17 254//17
f 252//10 250//10 254//10 256//10
f 267//11 252//11 256//11 271//11
f 265//9 249//9 253//9 269//9
f 250//9 266//9 270//9 254//9
f 266//9 265//9 269//9 270//9
f 251//11 268//11 272//11 255//11
f 268//11 267//11 271//11 272//11
f 253//17 255//17 272//17 269//17
f 269//17 272//17 271//17 270//17
f 246//14 262//14 266//14 250//14
f 201//17 202//17 235//17 236//17
f 248//13 264//13 268//13 251//13
f 197//18 232//18 231//18 198//18
f 295//13 279//13 284//13 299//13
f 281//12 283//12 287//12 285//12
f 293//14 277//14 281//14 297//14
f 277//15 280//15 283//15 281//15
f 279//16 278//16 282//16 284//16
f 302//17 303//17 288//17 286//17
f 284//10 282//10 286//10 288//10
f 299//11 284//11 288//11 303//11
f 297//9 281//9 285//9 301//9
f 282//9 298//9 302//9 286//9
f 298//9 297//9 301//9 302//9
f 283//11 300//11 304//11 287//11
f 300//11 299//11 303//11 304//11
f 285//17 287//17 304//17 301//17
f 301//17 304//17 303//17 302//17
f 278//14 294//14 298//14 282//14
f 294//14 293//14 297//14 298//14
f 280//13 296//13 300//13 283//13
f 202//20 198//20 231//20 235//20
f 233//17 234//17 267//17 268//17
f 233//19 268//19 264//19 229//19
f 265//19 300//19 296//19 261//19
f 261//18 296//18 295//18 262//18
f 265//17 266//17 299//17 300//17
f 266//20 262//20 295//20 299//20
